<?xml version="1.0" encoding="iso-8859-1"?>
<!-- Generator: Adobe Illustrator 19.0.0, SVG Export Plug-In . SVG Version: 6.00 Build 0)  -->
<svg version="1.1" id="Layer_1" xmlns="http://www.w3.org/2000/svg" xmlns:xlink="http://www.w3.org/1999/xlink" x="0px" y="0px"
	 viewBox="0 0 511.998 511.998" style="enable-background:new 0 0 511.998 511.998;" xml:space="preserve">
<g>
	<path style="fill:#FCC447;" d="M106.516,215.671l-47.155-34.986c0,0-39.698,70.425,49.147,104.208"/>
	<path style="fill:#FCC447;" d="M405.276,215.671l47.155-34.986c0,0,39.698,70.425-49.147,104.208"/>
	<path style="fill:#FCC447;" d="M391.941,321.221c9.665-21.613,15.083-47.247,15.083-76.719
		c0-104.215-67.712-190.849-151.246-190.849c-83.522,0-151.246,86.634-151.246,190.849c0,29.472,5.417,55.106,15.083,76.719"/>
</g>
<path style="fill:#E8AF3D;" d="M273.953,55.048c-5.959-0.912-12.023-1.395-18.175-1.395c-83.522,0-151.246,86.634-151.246,190.849
	c0,29.472,5.417,55.106,15.083,76.719h36.347c-9.665-21.613-15.083-47.247-15.083-76.719
	C140.88,147.962,198.999,66.521,273.953,55.048z"/>
<path style="fill:#FFFFFF;" d="M255.781,269.137l-37.086-44.031l0,0c21.173-18.738,52.999-18.738,74.172,0l0,0L255.781,269.137z"/>
<path style="fill:#F2F2F2;" d="M438.053,310.136c0,125.601-81.602,193.347-182.274,193.347
	c-100.66,0-182.274-67.746-182.274-193.347c0-3.737,0.068-7.484,0.216-11.244l1.579,0.784l43.771,21.817l14.708-7.337l30.858-15.378
	l45.566,22.715l45.566-22.715l45.577,22.715l45.566-22.715l45.577,22.715l45.35-22.601
	C437.985,302.651,438.053,306.399,438.053,310.136z"/>
<path style="fill:#E6E6E6;" d="M255.778,503.483c-99.922-0.716-180.672-68.417-180.672-193.336c0-3.475,0.068-6.973,0.193-10.471
	l43.771,21.817l14.708-7.337C134.936,436.214,188.964,502.438,255.778,503.483z"/>
<path d="M339.527,212.486v-17.037c0-4.704-3.814-8.518-8.518-8.518c-4.704,0-8.518,3.814-8.518,8.518v17.037
	c0,4.704,3.814,8.518,8.518,8.518C335.713,221.004,339.527,217.19,339.527,212.486z"/>
<path d="M180.757,221.004c4.704,0,8.518-3.814,8.518-8.518v-17.037c0-4.704-3.814-8.518-8.518-8.518
	c-4.704,0-8.518,3.814-8.518,8.518v17.037C172.239,217.19,176.052,221.004,180.757,221.004z"/>
<path d="M249.368,274.623c1.618,1.922,4.002,3.03,6.515,3.03c2.512,0,4.897-1.11,6.515-3.03l37.086-44.031
	c2.979-3.537,2.592-8.802-0.87-11.866c-24.36-21.558-61.1-21.56-85.464,0c-3.462,3.064-3.848,8.331-0.87,11.866L249.368,274.623z
	 M280.63,226.531l-24.748,29.383l-24.748-29.383C246.278,217.27,265.486,217.27,280.63,226.531z"/>
<path d="M459.953,176.501c-1.2-2.13-3.257-3.64-5.648-4.149c-2.393-0.509-4.885,0.034-6.847,1.491l-25.189,18.688
	c-3.779,2.803-4.568,8.139-1.766,11.916c2.803,3.779,8.139,4.568,11.916,1.765l16.543-12.274c3.238,9.449,6.502,25.059,0.773,40.898
	c-5.268,14.564-17.209,26.636-35.572,36.011c0.981-8.515,1.481-17.302,1.481-26.347c0-52.442-16.382-102.084-46.129-139.782
	c-28.086-35.593-64.786-56.36-104.186-59.229c3.718-16.273,18.301-28.455,35.685-28.455c4.704,0,8.518-3.814,8.518-8.518
	S305.717,0,301.013,0c-18.924,0-35.577,9.857-45.13,24.697C246.33,9.857,229.677,0,210.753,0c-4.704,0-8.518,3.814-8.518,8.518
	s3.814,8.518,8.518,8.518c17.386,0,31.97,12.185,35.686,28.461c-23.817,1.776-47.141,10.237-67.976,24.758
	c-3.859,2.689-4.808,7.999-2.118,11.858c2.689,3.859,7.999,4.809,11.858,2.118c20.71-14.433,44.112-22.062,67.676-22.062
	c37.634,0,73.24,18.859,100.261,53.102c27.385,34.705,42.466,80.6,42.466,129.228c0,23.869-3.683,45.692-10.959,65.014
	l-36.84-18.361c-2.393-1.193-5.207-1.193-7.599,0l-41.769,20.82l-41.77-20.82c-2.392-1.193-5.207-1.193-7.599,0l-41.768,20.82
	l-41.767-20.82c-2.393-1.193-5.208-1.193-7.6,0l-36.824,18.358c-7.276-19.322-10.959-41.144-10.959-65.012
	c0-54.101,18.951-105.228,51.994-140.272c3.227-3.423,3.069-8.813-0.354-12.041c-3.423-3.228-8.813-3.069-12.041,0.354
	c-26.729,28.349-44.983,66.195-52.613,107.715l-35.6-26.414c-1.963-1.456-4.454-1.998-6.847-1.491
	c-2.391,0.509-4.448,2.019-5.648,4.149c-0.721,1.279-17.53,31.709-5.802,64.131c7.835,21.662,26.234,38.59,54.708,50.377
	c1.023,4.652,2.212,9.203,3.559,13.655l-26.647-13.284c-0.122-0.066-0.246-0.128-0.373-0.19l-0.216-0.103
	c-4.22-2.011-9.273-0.248-11.322,3.956c-0.843,1.729-1.048,3.605-0.706,5.358c-0.103,3.182-0.156,6.448-0.156,9.732
	c0,61.826,19.336,113.636,55.917,149.829c33.915,33.556,81.815,52.036,134.875,52.036c53.153,0,101.111-18.535,135.038-52.193
	c3.339-3.313,3.361-8.707,0.048-12.046c-3.312-3.34-8.705-3.361-12.046-0.048c-30.714,30.471-74.411,47.251-123.039,47.251
	c-48.545,0-92.189-16.73-122.893-47.11c-32.806-32.458-50.363-79.206-50.851-135.308l33.238,16.569c2.393,1.194,5.208,1.193,7.6,0
	l41.762-20.82l41.767,20.82c2.393,1.194,5.207,1.193,7.6,0l41.768-20.82l41.77,20.82c2.392,1.193,5.207,1.193,7.599,0l41.769-20.82
	l41.775,20.82c2.393,1.193,5.206,1.193,7.599,0l33.243-16.568c-0.369,43.474-10.734,80.794-30.82,110.958
	c-2.608,3.916-1.547,9.204,2.368,11.81c3.916,2.608,9.204,1.548,11.812-2.368c22.352-33.567,33.686-74.887,33.686-122.813
	c0-3.278-0.052-6.536-0.156-9.711c0.357-1.805,0.134-3.738-0.763-5.505c-2.119-4.172-7.204-5.854-11.395-3.766l-27.107,13.511
	c1.336-4.419,2.519-8.934,3.537-13.549c28.621-11.79,47.108-28.754,54.966-50.482C477.482,208.209,460.675,177.78,459.953,176.501z
	 M62.315,234.986c-5.758-15.766-2.482-31.498,0.753-41.02l34.338,25.477c-0.845,8.262-1.289,16.628-1.289,25.059
	c0,8.998,0.496,17.739,1.467,26.213C79.427,261.389,67.585,249.414,62.315,234.986z"/>
<g>
</g>
<g>
</g>
<g>
</g>
<g>
</g>
<g>
</g>
<g>
</g>
<g>
</g>
<g>
</g>
<g>
</g>
<g>
</g>
<g>
</g>
<g>
</g>
<g>
</g>
<g>
</g>
<g>
</g>
</svg>
