<svg id="Layer_1" data-name="Layer 1" xmlns="http://www.w3.org/2000/svg" viewBox="0 0 165.86 26"><defs><style>.itu-1{fill:#020000;}.itu-2{fill:#fff;}</style></defs><title>itu</title><rect class="itu-1" width="165.86" height="26"/><path class="itu-2" d="M7.52,7.43h1.1V18.57H7.52Z" transform="translate(0 0)"/><path class="itu-2" d="M13.28,8.39H10v-1h7.68v1H14.38V18.57h-1.1Z" transform="translate(0 0)"/><path class="itu-2" d="M31.62,14.68a3.77,3.77,0,0,1-4,4.08,3.77,3.77,0,0,1-4-4.08V7.43h1.1v7.25a2.8,2.8,0,0,0,2.94,3.12,2.8,2.8,0,0,0,2.93-3.12V7.43h1.1Z" transform="translate(0 0)"/><path class="itu-2" d="M34.13,7.43h1.39l5.67,9.8h0V7.43h1.1V18.57H40.84L35.27,9h0v9.61h-1.1Z" transform="translate(0 0)"/><path class="itu-2" d="M44.78,7.43h1.1V18.57h-1.1Z" transform="translate(0 0)"/><path class="itu-2" d="M52.53,18.57H51.34L47.19,7.43h1.17l3.59,10,3.72-10h1.09Z" transform="translate(0 0)"/><path class="itu-2" d="M58.23,7.43h5.46v1H59.33v4h4.13v1H59.33v4.29h4.55v1H58.23Z" transform="translate(0 0)"/><path class="itu-2" d="M66.24,7.43h2.88c2,0,3.27.84,3.27,2.89a2.62,2.62,0,0,1-2.47,2.57v0c.89.11,1.08.59,1.43,1.34l1.9,4.31H72L70.43,14.8c-.64-1.43-1.12-1.48-2.18-1.48h-.91v5.25h-1.1Zm1.1,4.93h1.17c1.29,0,2.78-.49,2.78-2,0-1.82-1.29-1.93-2.81-1.93H67.34Z" transform="translate(0 0)"/><path class="itu-2" d="M74.79,17.15a4.41,4.41,0,0,0,2.45.65,2.22,2.22,0,0,0,2.51-2.28c0-2.19-5.11-2.46-5.11-5.38,0-1.79,1.57-2.9,3.53-2.9a6.86,6.86,0,0,1,2.19.36l-.18,1a4.55,4.55,0,0,0-2-.42c-1.15,0-2.41.48-2.41,1.92,0,2.24,5.11,2.25,5.11,5.51,0,2.25-1.93,3.14-3.65,3.14a6.3,6.3,0,0,1-2.53-.48Z" transform="translate(0 0)"/><path class="itu-2" d="M82.93,7.43H84V18.57h-1.1Z" transform="translate(0 0)"/><path class="itu-2" d="M88.69,8.39H85.4v-1h7.68v1H89.79V18.57h-1.1Z" transform="translate(0 0)"/><path class="itu-2" d="M97.55,13.85,93.42,7.43H94.7l3.4,5.44,3.49-5.44h1.2l-4.13,6.42v4.72H97.55Z" transform="translate(0 0)"/><path class="itu-2" d="M113.18,7.24c3.36,0,4.94,2.74,4.9,5.76,0,3.42-1.69,5.76-4.9,5.76s-4.86-2.34-4.9-5.76C108.25,10,109.83,7.24,113.18,7.24ZM109.39,13c0,2.36,1.18,4.8,3.79,4.8S117,15.36,117,13s-1.18-4.81-3.8-4.81S109.39,10.64,109.39,13Z" transform="translate(0 0)"/><path class="itu-2" d="M120.18,7.43h5.3v1h-4.2v4h4v1h-4v5.25h-1.1Z" transform="translate(0 0)"/><path class="itu-2" d="M139.5,8.67A5.88,5.88,0,0,0,137,8.19c-2.89,0-4.52,2.05-4.52,4.81s1.58,4.8,4.52,4.8a5.43,5.43,0,0,0,2.49-.48l.06,1a5.94,5.94,0,0,1-2.55.48c-3.51,0-5.62-2.31-5.62-5.76s2.17-5.76,5.62-5.76a7.26,7.26,0,0,1,2.55.41Z" transform="translate(0 0)"/><path class="itu-2" d="M142.5,7.43h2.75c2.09,0,3.45,1.05,3.45,3.16s-1.57,3.16-3.56,3.16H143.6v4.82h-1.1Zm1.1,5.36h.77c1.66,0,3.22-.19,3.22-2.2a2,2,0,0,0-2.2-2.2H143.6Z" transform="translate(0 0)"/><path class="itu-2" d="M150.52,7.43h1.1v4.93h5.63V7.43h1.11V18.57h-1.11V13.32h-5.63v5.25h-1.1Z" transform="translate(0 0)"/></svg>