<svg id="Layer_1" data-name="Layer 1" xmlns="http://www.w3.org/2000/svg" viewBox="0 0 86.42 86.42"><defs><style>.p-1{fill:#443266;}.p-2{fill:#8c489f;}</style></defs><title>logo</title><g id="_Group_13" data-name="&lt;Group&gt;"><g id="_Group_14" data-name="&lt;Group&gt;"><path id="_Path_" data-name="&lt;Path&gt;" class="p-2" d="M62.12,54.55a30,30,0,0,0,2.35-9.15C62.4,50.32,60.13,55.05,55,57.49l-.16-.14c1.15-1.15,2.34-2.26,3.44-3.45a21.59,21.59,0,0,0,5.1-8.47,9.26,9.26,0,0,0,.29-4.53c-.44,1.38-.81,2.62-1.24,3.84a23.53,23.53,0,0,1-4.27,7.77,9.32,9.32,0,0,1-4.7,3.15C58.6,51.74,61.85,46.77,62,40.1c-1.84,5.44-4,10.66-9.29,13.74,4.54-4.7,8.2-9.77,7.42-16.82-.39,6.45-3.66,11.23-8.63,15a33,33,0,0,0,5.88-8.84,13.06,13.06,0,0,0,1.17-6.58,5.9,5.9,0,0,0-1.09-2.86,3.6,3.6,0,0,0-3.92-1.4,9.26,9.26,0,0,0-3.1,1.28,4.07,4.07,0,0,1-.66.33c1.93-1.91,4-3.64,6.7-4.34a7.32,7.32,0,0,1,8.31,4,17.42,17.42,0,0,1,1.14,9.44A33.14,33.14,0,0,1,62.12,54.55Z"/><path id="_Path_2" data-name="&lt;Path&gt;" class="p-2" d="M27.86,43.67A15.79,15.79,0,0,1,23.94,37a7.34,7.34,0,0,1,4.88-8.51,18.63,18.63,0,0,1,10.49-.09,35.8,35.8,0,0,1,9.62,4,.45.45,0,0,1,.18.22,27.49,27.49,0,0,0-8.69-2.85A35.93,35.93,0,0,1,47,33.81,12.46,12.46,0,0,1,51.48,40a49,49,0,0,0-4.1-4.42A19.48,19.48,0,0,0,39,30.41a8.46,8.46,0,0,0-3.37-.23c1.45.58,2.76,1.05,4,1.61a22.86,22.86,0,0,1,7.42,4.85,11.11,11.11,0,0,1,2.26,3.28,2.63,2.63,0,0,1,.29,1.23c-3.68-5.47-8.57-8.93-15.29-9.42A35.81,35.81,0,0,1,42,35.51a15.18,15.18,0,0,1,5.68,6.26c-1.12-1-2.07-2.15-3.19-3.14a19.44,19.44,0,0,0-10.4-5.19,12,12,0,0,0-2.24,0,.41.41,0,0,0-.44.19,17,17,0,0,1,8.37,3A22,22,0,0,1,46,43a46.32,46.32,0,0,0-4.2-3.72c-2.87-2.18-5.93-4-9.62-4.28a6.69,6.69,0,0,0-3.5.59,3.66,3.66,0,0,0-2.23,4.05A12.25,12.25,0,0,0,27.86,43.67Z"/><path id="_Path_3" data-name="&lt;Path&gt;" class="p-2" d="M42.51,59.34c-5.23-3.66-7.59-10.22-7.68-15.44.11.38.22.75.32,1.13l.35,1.22a26.87,26.87,0,0,0,4,8.24,11.11,11.11,0,0,0,4.79,4,4.43,4.43,0,0,0,4.25-.13,4.54,4.54,0,0,0,1.8-2.77,13.07,13.07,0,0,0,.38-3.09c.95,3.4.8,7.59-1.13,9.92A7.22,7.22,0,0,1,42.34,65c-3.8-.72-6.84-2.86-9.54-5.53a35.44,35.44,0,0,1-5.49-7.17.62.62,0,0,1-.09-.34A29.47,29.47,0,0,0,33,58.22c-2.87-4.4-5.51-8.87-4.59-14.44.34,1.56.64,3.14,1.05,4.69,1.11,4.13,2.66,8,6.18,10.75a5.92,5.92,0,0,0,1.47.83c.11-.25-.1-.32-.19-.42a31.05,31.05,0,0,1-5.45-8.3,12.49,12.49,0,0,1-1.13-6.71,3.48,3.48,0,0,1,.4-1.31,21.69,21.69,0,0,0,2.19,9.14A17.12,17.12,0,0,0,39,59.3c-3.6-4.58-6.83-9.3-6.41-15.51a29.52,29.52,0,0,0,3.13,9A14.55,14.55,0,0,0,42.51,59.34Z"/><path id="_Path_4" data-name="&lt;Path&gt;" class="p-1" d="M46.53,77.15a5.3,5.3,0,0,1-6.65-3.69,5.41,5.41,0,1,1,6.65,3.69Z"/><path id="_Path_5" data-name="&lt;Path&gt;" class="p-1" d="M15.64,21.52a5.41,5.41,0,1,1,7.67,7.64,5.41,5.41,0,0,1-7.67-7.64Z"/><path id="_Path_6" data-name="&lt;Path&gt;" class="p-1" d="M71.58,20.4A5.38,5.38,0,1,1,64,28a5.38,5.38,0,1,1,7.61-7.61Z"/></g><path id="_Compound_Path_11" data-name="&lt;Compound Path&gt;" class="p-1" d="M43.21,2.46A40.75,40.75,0,1,1,2.46,43.21,40.75,40.75,0,0,1,43.21,2.46m0-2.46A43.21,43.21,0,1,0,86.42,43.21,43.25,43.25,0,0,0,43.21,0Z"/></g></svg>
