<svg id="Layer_1" data-name="Layer 1" xmlns="http://www.w3.org/2000/svg" viewBox="0 0 700.18 394.64"><defs><style>.o-1,.o-2{fill:#3e7296;}.o-2{fill-rule:evenodd;}</style></defs><title>obyte</title><path class="o-1" d="M363.21,251.58h18.23v43.65h.31A25.77,25.77,0,0,1,391.93,286,32.46,32.46,0,0,1,407,282.67a39.35,39.35,0,0,1,13.48,2.45,34.69,34.69,0,0,1,12,7.43A38,38,0,0,1,441.1,305a43.09,43.09,0,0,1,3.29,17.54,41.82,41.82,0,0,1-3,15.93A36.59,36.59,0,0,1,433,351.06,39.15,39.15,0,0,1,420,359.33a44,44,0,0,1-16.39,3,45.88,45.88,0,0,1-16.47-2.83,35.77,35.77,0,0,1-12.71-8.12,37.4,37.4,0,0,1-8.27-12.79,44.81,44.81,0,0,1-3-16.7v-70.3Zm40.44,93.74q10.11,0,16.23-6.36T426,322.5q0-10.11-6.13-16.47t-16.23-6.36q-10.11,0-16.16,6.36t-6.05,16.47q0,10.11,6.05,16.46t16.16,6.36Zm109.21,4h-.31a24.29,24.29,0,0,1-9,8.88,26.18,26.18,0,0,1-13.17,3.22,37,37,0,0,1-12.71-2.22,30.28,30.28,0,0,1-10.88-6.82,32.83,32.83,0,0,1-7.58-11.87,47.85,47.85,0,0,1-2.83-17.38V284.66h18.22v38.45q0,10.88,5.21,16.08t13.94,5.21A18.69,18.69,0,0,0,507.5,339q5.36-5.35,5.36-15.93V284.66h18.22v73.06a43.94,43.94,0,0,1-2.91,16.93,30.13,30.13,0,0,1-8,11.41,32.36,32.36,0,0,1-12,6.51,50.93,50.93,0,0,1-14.71,2.07,49.5,49.5,0,0,1-12.48-1.53,35.18,35.18,0,0,1-10.72-4.75,31.28,31.28,0,0,1-8.27-8.12,32.52,32.52,0,0,1-5-11.64h18.23q4.44,10.26,18.22,10.26,9.35,0,14.4-4.82t5.06-15.86V349.3Zm97.56-18.07a38.88,38.88,0,0,1-2.22,13.71,25,25,0,0,1-6.35,9.72,27,27,0,0,1-9.81,5.75,42.25,42.25,0,0,1-25.12,0,27.08,27.08,0,0,1-9.8-5.75,24.92,24.92,0,0,1-6.35-9.72,38.64,38.64,0,0,1-2.23-13.71V259.39h18.23v25.27h39.06v16.55H566.77v30q0,7.65,3.52,10.87a13.09,13.09,0,0,0,9.19,3.22,13.29,13.29,0,0,0,9.19-3.14c2.35-2.09,3.53-5.75,3.53-10.95v-2h18.22v2Zm27.73-2.3v.31a21.25,21.25,0,0,0,7.43,12.1q5.58,4.44,14.16,4.44,12.25,0,17.92-7.2h19.46A36.1,36.1,0,0,1,683,355.89q-9.81,6.44-23.29,6.43a43.77,43.77,0,0,1-16.46-3,39.36,39.36,0,0,1-12.87-8.27A36.59,36.59,0,0,1,622,338.43a43.93,43.93,0,0,1,0-31.86,36.63,36.63,0,0,1,8.42-12.64,39.36,39.36,0,0,1,12.87-8.27,46.61,46.61,0,0,1,32.85,0,36.6,36.6,0,0,1,21.06,20.91,41.94,41.94,0,0,1,3,15.93v6.43Zm21.59-29.71q-8.12,0-13.55,4a20.63,20.63,0,0,0-7.58,10.87v.31h42.27v-.31a20.49,20.49,0,0,0-7.66-10.87,22.36,22.36,0,0,0-13.48-4Z"/><path class="o-2" d="M181.16,0c100,0,181.16,81.13,181.16,181.16S281.19,362.32,181.16,362.32,0,281.19,0,181.16,81.13,0,181.16,0Zm0,19.8A161.36,161.36,0,1,1,19.8,181.16,161.38,161.38,0,0,1,181.16,19.8Z"/></svg>