
<svg viewBox="0 0 187 36" version="1.1" xmlns="http://www.w3.org/2000/svg" xmlns:xlink="http://www.w3.org/1999/xlink">
    <!-- Generator: sketchtool 40.1 (33804) - http://www.bohemiancoding.com/sketch -->
    <title>2E429B2B-A67D-43CE-A913-20C85CA83704</title>
    <desc>Created with sketchtool.</desc>
    <defs></defs>
    <g id="Landing_Desktop" stroke="none" stroke-width="1" fill="none" fill-rule="evenodd">
        <g id="001_Landing_v2" transform="translate(-154.000000, -36.000000)" fill="#FFFFFF">
            <g id="Hero" transform="translate(-37.000000, 0.000000)">
                <g id="Nav_bar" transform="translate(191.000000, 36.000000)">
                    <g id="Logo_Scrumwise_Hero">
                        <path d="M164.876549,29.2908394 C164.430516,29.4893362 163.990157,29.6912911 163.560975,29.8932446 C163.048373,30.1344519 162.665641,30.3214802 162.455803,30.4270696 L161.462782,30.9267515 L161.286645,29.8316938 C161.273999,29.7530744 161.273999,29.7530744 161.216488,29.3977601 C161.160457,29.0522136 161.097709,28.6671396 161.029743,28.2524312 C160.835574,27.0676666 160.638532,25.8829541 160.450651,24.7775701 C160.41189,24.549772 160.41189,24.549772 160.373053,24.3225611 C160.031071,22.3242615 159.766981,20.8757646 159.61609,20.2018247 C159.148342,18.1123445 158.698505,16.174311 158.326533,14.6275078 C157.809891,13.480316 157.377488,12.4810819 157.294778,12.1681211 L157.006506,11.0773425 L158.075791,10.7089112 C158.157226,10.6808521 158.157226,10.6808521 158.523188,10.5549501 C159.011419,10.3871118 159.276074,10.2962122 159.704213,10.1493688 C160.92754,9.72979131 162.155381,9.31020241 163.30787,8.91850801 C163.363175,8.89971268 163.363175,8.89971268 163.418489,8.88091938 C164.18833,8.61937598 164.896537,8.37983675 165.530006,8.16688104 C166.323229,7.90015074 167.283512,7.51133911 168.370709,7.02333554 C168.787237,6.83637124 169.218639,6.63651775 169.662122,6.42553597 C170.680243,5.94117645 171.714697,5.42120844 172.710264,4.9011753 C173.058728,4.71915517 173.377232,4.55023934 173.658961,4.39884044 C173.827063,4.30850375 173.944878,4.24445271 174.005618,4.21109119 L175.34588,3.47494528 L175.76669,4.94179242 C175.791837,5.02944887 175.839944,5.19554479 175.908248,5.42883955 C176.022361,5.81859928 176.151161,6.25313373 176.291876,6.72118158 C176.693722,8.05780204 177.110189,9.39411957 177.518812,10.6392897 C177.682016,11.1366099 177.840977,11.6100672 177.994799,12.0561183 C178.166339,12.5535486 178.330441,13.0138508 178.486035,13.4329448 C178.784755,14.2377406 179.236632,15.224605 179.812298,16.3477514 C180.033703,16.7797218 180.271296,17.2276803 180.522792,17.6884891 C181.076394,18.7028339 181.670806,19.7318951 182.265306,20.7210617 C182.473398,21.0672985 182.666502,21.3835935 182.839564,21.6632195 C182.942787,21.8300006 183.015934,21.9467813 183.053967,22.0068596 L183.873337,23.3011871 L182.423568,23.8043825 C182.345405,23.831512 182.196776,23.8836088 181.987788,23.9576812 C181.638359,24.0815308 181.24872,24.2213943 180.829001,24.3742692 C179.630544,24.8107851 178.432434,25.2636081 177.316577,25.708301 C176.85506,25.8922252 176.416662,26.071233 176.004945,26.244231 C175.48277,26.4636422 175.007665,26.6716435 174.585931,26.8661543 C173.884151,27.1899133 173.056256,27.5636743 172.125424,27.9778895 C171.985937,28.0399335 171.985937,28.0399335 171.846355,28.1019164 C170.716232,28.6035567 169.506111,29.1334904 168.296091,29.6585697 C167.872662,29.8423136 167.479453,30.0123426 167.126508,30.1644985 C166.763268,30.3209202 166.763268,30.3209202 166.681873,30.355837 L165.601496,30.8192897 L165.097766,29.7596184 C165.056103,29.6719761 164.980869,29.5128405 164.876549,29.2908394 Z M164.191571,27.8201048 C163.742321,28.0202284 163.299098,28.2235844 162.866932,28.4269417 C162.560159,28.5712954 162.7159,28.4879502 162.7159,28.4879502 C162.7159,28.4879502 162.662634,28.161865 162.634623,27.9909522 C162.439977,26.8032762 162.242434,25.6155481 162.053956,24.5066542 C162.015048,24.2779893 162.015048,24.2779893 161.97605,24.0498372 C161.850364,23.315422 161.73523,22.6551915 161.631927,22.0779615 C161.717472,22.2789918 161.805042,22.4834339 161.894559,22.6911427 C162.022102,22.9870854 162.153245,23.2888343 162.287707,23.5958541 C162.89408,24.9803961 163.542566,26.4150939 164.191571,27.8201048 Z M169.485412,35.3919775 C159.816863,35.3919775 151.978776,27.5882111 151.978776,17.9619986 C151.978776,8.33578607 159.816863,0.532019704 169.485412,0.532019704 C179.153961,0.532019704 186.992049,8.33578607 186.992049,17.9619986 C186.992049,27.5882111 179.153961,35.3919775 169.485412,35.3919775 Z M160.497659,12.4491939 C161.718997,12.0302986 162.944775,11.6114147 164.094868,11.2205345 C164.150039,11.201785 164.150039,11.201785 164.205215,11.1830384 C164.972746,10.9222797 165.678547,10.6835544 166.309418,10.471472 C167.188712,10.1757995 168.218293,9.75892959 169.372033,9.24105711 C169.805686,9.0464061 170.253349,8.83901924 170.712538,8.6205655 C171.760657,8.12193515 173.842222,7.05552944 173.842222,7.05552944 C173.842222,7.05552944 173.812879,6.94565193 173.955346,7.41952603 C174.362593,8.77411116 174.784847,10.1289992 175.20051,11.395621 C175.367343,11.9039989 175.530133,12.3888597 175.688099,12.8469283 C175.865509,13.3613793 176.035888,13.8392911 176.198453,14.277162 C176.535484,15.1851711 177.024567,16.2532905 177.640246,17.4545057 C177.871656,17.905996 178.119035,18.3724046 178.380231,18.8509863 C178.951484,19.8976728 179.562272,20.9550842 180.172973,21.9712067 L179.992032,22.0898327 C178.772353,22.5340782 177.552329,22.9951836 176.411259,23.4499242 C175.936281,23.6392131 175.484009,23.8238858 175.057669,24.0030283 C174.511162,24.2326636 174.010895,24.4516808 173.561741,24.658838 C172.871084,24.9774657 172.052806,25.3468848 171.131293,25.7569533 C170.992869,25.8185246 170.992869,25.8185246 170.854299,25.8800577 C169.731095,26.378627 168.526936,26.9059499 167.322677,27.4285295 C166.901108,27.6114662 166.810424,27.6716296 166.810424,27.6716296 C166.810424,27.6716296 166.565389,27.1451089 166.434258,26.8614008 C165.782493,25.4512848 165.130796,24.0100896 164.52312,22.6225723 C164.390528,22.3198221 164.261278,22.0224283 164.135659,21.7309502 C163.810145,20.9756507 163.511441,20.2657386 163.24366,19.6092498 C163.041871,19.1145189 162.829488,18.6132126 162.604712,18.0994538 C162.321069,17.451145 160.082158,12.5930438 160.082158,12.5930438 C160.082158,12.5930438 160.070165,12.5958159 160.497659,12.4491939 Z" id="Mark"></path>
                        <path d="M12.5217235,23.092898 C12.5217235,24.7986038 11.9191695,26.1070683 10.7148758,27.0174806 C9.51139632,27.9287037 7.78678906,28.3843153 5.54186828,28.3843153 C3.28636209,28.3843153 1.47462878,28.0316622 0.107482605,27.3255454 L0.107482605,24.1200507 C2.09753933,25.0677551 3.94998575,25.541202 5.6640076,25.541202 C7.87798642,25.541202 8.98538296,24.8512991 8.98538296,23.472304 C8.98538296,23.0296636 8.86324364,22.6616073 8.61815073,22.3665137 C8.37305781,22.0714201 7.96999804,21.7657875 7.40897141,21.4504265 C6.84794478,21.1342548 6.06706737,20.7767375 5.06715344,20.3754426 C3.11780982,19.5971738 1.79870512,18.8180943 1.10983933,18.0382041 C0.420973538,17.2591246 0.0765406433,16.2481858 0.0765406433,15.0061985 C0.0765406433,13.5104631 0.661180876,12.3495454 1.82964708,11.5234455 C2.99811328,10.6965348 4.58673876,10.2830795 6.5979663,10.2830795 C8.58720876,10.2830795 10.4697829,10.6989669 12.2456887,11.5307417 L11.082108,14.3268346 C9.255718,13.5477551 7.72001956,13.15781 6.47501271,13.15781 C4.57696761,13.15781 3.62835219,13.71638 3.62835219,14.8318987 C3.62835219,15.3799296 3.87507363,15.8428374 4.37014502,16.2222435 C4.86521642,16.6008388 5.94411378,17.1221168 7.60765138,17.7852667 C9.00573951,18.3438367 10.0211244,18.8553863 10.6538061,19.3182942 C11.2864878,19.781202 11.7563171,20.3154511 12.0624797,20.9210415 C12.367828,21.5266319 12.5217235,22.2505841 12.5217235,23.092898" id="Fill-8"></path>
                        <path d="M21.6878727,28.3843153 C19.1262039,28.3843153 17.1801174,27.612532 15.8479845,26.0697762 C14.5166658,24.5278311 13.8505994,22.3138184 13.8505994,19.4285489 C13.8505994,16.4905841 14.5467935,14.2319831 15.9399961,12.652746 C17.3331986,11.0726981 19.3452405,10.2830795 21.9785643,10.2830795 C23.7642412,10.2830795 25.3715947,10.6251935 26.8006248,11.3094215 L25.7135848,14.2952175 C24.1925431,13.6847628 22.9377651,13.3791302 21.9484366,13.3791302 C19.0187213,13.3791302 17.554678,15.3847938 17.554678,19.3969317 C17.554678,21.3547643 17.9194674,22.8269894 18.6490463,23.8111752 C19.3786252,24.7961717 20.4477514,25.2882646 21.8556107,25.2882646 C23.4580786,25.2882646 24.9734205,24.8772414 26.4024506,24.0568163 L26.4024506,27.2939282 C25.7591835,27.6838733 25.0735748,27.962753 24.3431816,28.1313779 C23.6136027,28.2991921 22.7284997,28.3843153 21.6878727,28.3843153" id="Fill-9"></path>
                        <path d="M37.2109666,10.2830795 C37.9356599,10.2830795 38.532514,10.3357748 39.001529,10.4411654 L38.6497678,13.9004082 C38.1392254,13.7739395 37.6091407,13.7107051 37.0578853,13.7107051 C35.619084,13.7107051 34.4530606,14.1955018 33.559815,15.1634736 C32.6673837,16.1322562 32.221168,17.3904574 32.221168,18.9388881 L32.221168,28.0681436 L28.6237578,28.0681436 L28.6237578,10.5992512 L31.4402906,10.5992512 L31.9150054,13.679088 L32.0982144,13.679088 C32.6592411,12.636532 33.392077,11.8104321 34.2950937,11.1991668 C35.1981105,10.5887122 36.1695252,10.2830795 37.2109666,10.2830795" id="Fill-10"></path>
                        <path d="M52.574465,28.0681436 L52.0696225,25.7779254 L51.8864135,25.7779254 C51.3856423,26.5894328 50.6739771,27.2258297 49.7506039,27.6887375 C48.8272306,28.1516453 47.7735753,28.3843153 46.5896381,28.3843153 C44.5385118,28.3843153 43.0076989,27.8573624 41.9971995,26.8042674 C40.9875145,25.7511724 40.4818577,24.156532 40.4818577,22.0187248 L40.4818577,10.5992512 L44.1102099,10.5992512 L44.1102099,21.3709782 C44.1102099,22.707817 44.3756593,23.7114595 44.905744,24.3802843 C45.4366429,25.0482984 46.2680046,25.3831161 47.4006433,25.3831161 C48.9110996,25.3831161 50.0209389,24.9169655 50.7301612,23.985475 C51.4393836,23.0531738 51.7935876,21.491772 51.7935876,19.3020802 L51.7935876,10.5992512 L55.4064688,10.5992512 L55.4064688,28.0681436 L52.574465,28.0681436" id="Fill-11"></path>
                        <path d="M73.039316,28.0681436 L69.4264347,28.0681436 L69.4264347,17.2956059 C69.4264347,15.9587671 69.1813418,14.9607994 68.6919703,14.3025137 C68.2017844,13.6450387 67.436378,13.3158958 66.395751,13.3158958 C65.007434,13.3158958 63.9896063,13.7812357 63.3414536,14.7135369 C62.6941152,15.6458381 62.3700388,17.1958902 62.3700388,19.3653146 L62.3700388,28.0681436 L58.7726286,28.0681436 L58.7726286,10.5992512 L61.5891614,10.5992512 L62.094004,12.8894694 L62.2780272,12.8894694 C62.7478565,12.0576946 63.4285797,11.4148121 64.3218252,10.9624433 C65.2142566,10.5100746 66.1962567,10.2830795 67.26864,10.2830795 C69.8702076,10.2830795 71.5948149,11.1991668 72.4416475,13.0313413 L72.6867404,13.0313413 C73.1866974,12.1679493 73.8910342,11.4942604 74.7997507,11.0094638 C75.7076531,10.5254778 76.7482801,10.2830795 77.9224461,10.2830795 C79.9426306,10.2830795 81.4148166,10.8100324 82.3381898,11.8631274 C83.2615631,12.9154117 83.7232498,14.5214018 83.7232498,16.6794764 L83.7232498,28.0681436 L80.1266538,28.0681436 L80.1266538,17.2956059 C80.1266538,15.9587671 79.8791181,14.9607994 79.3840467,14.3025137 C78.8889753,13.6450387 78.1211261,13.3158958 77.0804991,13.3158958 C75.6815967,13.3158958 74.6588834,13.7658325 74.011545,14.6665165 C73.3633923,15.5663899 73.039316,16.947817 73.039316,18.8124194 L73.039316,28.0681436" id="Fill-12"></path>
                        <path d="M100.818684,28.0681436 L98.6299472,19.9182097 C98.3644977,19.0548177 97.8848973,17.0491541 97.1911459,13.9004082 L97.0527214,13.9004082 C96.461567,16.7435215 95.9917378,18.7597241 95.6448621,19.9498269 L93.3950557,28.0681436 L89.4149423,28.0681436 L84.6694224,10.5992512 L88.3433733,10.5992512 L90.5019823,19.2072287 C90.9913538,21.3344968 91.3382295,23.1561323 91.5426093,24.6721351 L91.634621,24.6721351 C91.7364037,23.9035947 91.8919278,23.0215567 92.1011932,22.0268318 C92.3104585,21.0312963 92.492039,20.2870767 92.644306,19.791741 L95.2165602,10.5992512 L99.1657317,10.5992512 L101.660631,19.791741 C101.813712,20.3081548 102.005064,21.0977734 102.234686,22.1614075 C102.464308,23.2242308 102.599475,24.0511414 102.640188,24.6405179 L102.762328,24.6405179 C102.916223,23.3458353 103.27287,21.5347389 103.834711,19.2072287 L106.023448,10.5992512 L109.636329,10.5992512 L104.859867,28.0681436 L100.818684,28.0681436" id="Fill-13"></path>
                        <path d="M111.073502,28.0681436 L114.670912,28.0681436 L114.670912,10.5992512 L111.073502,10.5992512 L111.073502,28.0681436 Z M110.858536,5.97098381 C110.858536,5.30783392 111.035231,4.797095 111.387807,4.43957776 C111.739568,4.08124982 112.241968,3.90208586 112.895006,3.90208586 C113.527688,3.90208586 114.020316,4.08124982 114.372078,4.43957776 C114.724653,4.797095 114.899719,5.30783392 114.899719,5.97098381 C114.899719,6.60332723 114.724653,7.101095 114.372078,7.46347643 C114.020316,7.82666854 113.527688,8.0090753 112.895006,8.0090753 C112.241968,8.0090753 111.739568,7.82666854 111.387807,7.46347643 C111.035231,7.101095 110.858536,6.60332723 110.858536,5.97098381 L110.858536,5.97098381 Z" id="Fill-14"></path>
                        <path d="M129.638679,23.092898 C129.638679,24.7986038 129.036125,26.1070683 127.831831,27.0174806 C126.628352,27.9287037 124.903744,28.3843153 122.658824,28.3843153 C120.402503,28.3843153 118.592398,28.0316622 117.224438,27.3255454 L117.224438,24.1200507 C119.214495,25.0677551 121.066941,25.541202 122.780963,25.541202 C124.994942,25.541202 126.102338,24.8512991 126.102338,23.472304 C126.102338,23.0296636 125.980199,22.6616073 125.735106,22.3665137 C125.490013,22.0714201 125.086953,21.7657875 124.525927,21.4504265 C123.964086,21.1342548 123.184023,20.7767375 122.184109,20.3754426 C120.234765,19.5971738 118.91566,18.8180943 118.226795,18.0382041 C117.538743,17.2591246 117.193496,16.2481858 117.193496,15.0061985 C117.193496,13.5104631 117.778136,12.3495454 118.946602,11.5234455 C120.115069,10.6965348 121.704508,10.2830795 123.714922,10.2830795 C125.704978,10.2830795 127.586738,10.6989669 129.362644,11.5307417 L128.199063,14.3268346 C126.372673,13.5477551 124.836975,13.15781 123.591968,13.15781 C121.693923,13.15781 120.744493,13.71638 120.744493,14.8318987 C120.744493,15.3799296 120.992843,15.8428374 121.4871,16.2222435 C121.982172,16.6008388 123.061883,17.1221168 124.725421,17.7852667 C126.123509,18.3438367 127.13808,18.8553863 127.770761,19.3182942 C128.403443,19.781202 128.873272,20.3154511 129.179435,20.9210415 C129.484783,21.5266319 129.638679,22.2505841 129.638679,23.092898" id="Fill-15"></path>
                        <path d="M138.694903,13.0945757 C137.552493,13.0945757 136.636448,13.4683068 135.947582,14.2157692 C135.257902,14.9640422 134.847514,16.0536186 134.714789,17.4853089 L142.398981,17.4853089 C142.378625,16.0430795 142.04152,14.9502604 141.389296,14.2084729 C140.736258,13.4658747 139.837312,13.0945757 138.694903,13.0945757 L138.694903,13.0945757 Z M139.353641,28.3843153 C136.720317,28.3843153 134.661862,27.5914539 133.176648,26.0073526 C131.691434,24.4224405 130.949641,22.2392343 130.949641,19.4601661 C130.949641,16.6065137 131.638507,14.363316 133.015424,12.7313835 C134.39397,11.0994511 136.286315,10.2830795 138.694903,10.2830795 C140.929238,10.2830795 142.695373,10.9835215 143.990864,12.3835947 C145.287169,13.7844785 145.935322,15.7115046 145.935322,18.1646728 L145.935322,20.1711471 L134.65372,20.1711471 C134.705018,21.8663139 135.148791,23.1691034 135.985852,24.0803265 C136.8221,24.9907389 138.000337,25.4455398 139.522193,25.4455398 C140.521293,25.4455398 141.452809,25.3482562 142.315112,25.153689 C143.177416,24.9591217 144.104046,24.6348431 145.09256,24.1824743 L145.09256,27.1998874 C144.2156,27.631178 143.32724,27.9368107 142.429923,28.115164 C141.531792,28.2943279 140.506636,28.3843153 139.353641,28.3843153 L139.353641,28.3843153 Z" id="Fill-16"></path>
                    </g>
                </g>
            </g>
        </g>
    </g>
</svg>
